# xmcd
#
# Track frame offsets: 
#        150
#        11351
#        26854
#        45102
#        59563
#        79740
#        104225
#        115624
#        136641
#        149095
#        164624
#        188994
#        215279
#        226516
#        254315
#        273098
#
# Disc length: 3836 seconds
#
# Revision: 0
# Processed by: cddbd v1.5.2PL0 Copyright (c) Steve Scherf et al.
# Submitted via: ExactAudioCopy v0.99pb4
#
DISCID=d70efa10
DTITLE=Various Artist - The Very Best of Rare Groove - Volumes 11 and 12
DYEAR=1900
DGENRE=Rare Groove
TTITLE0=Fostor Sylvers - Misdemeanor
TTITLE1=Randy Brown - I Wanna Make Love to You
TTITLE2=Valerie Carter - Trying to Get Next to You
TTITLE3=Barbara Acklin - Rain Drops
TTITLE4=Maze and Franie Beverley - While I'm Alone
TTITLE5=The Futures - Ain't No Time for Nothing
TTITLE6=The Sylvers III - What's It All About (Tell Me)
TTITLE7=Rena Scott - Night Dancing
TTITLE8=Natalie Cole - This Will Be
TTITLE9=Cloe Martin - It Comes to My Attention
TTITLE10=Sylvia Striplin - You Can't Turn Me Away
TTITLE11=Roy Ayers - Love Will Bring Us Back Together
TTITLE12=The Joytones - This Love
TTITLE13=Benny Golson - I'm Always Dancing to the Music
TTITLE14=Phillis Hyman - Don't Tell Me Tell Her
TTITLE15=Eddie Harris - It's All Right Now
EXTD=
EXTT0=
EXTT1=
EXTT2=
EXTT3=
EXTT4=
EXTT5=
EXTT6=
EXTT7=
EXTT8=
EXTT9=
EXTT10=
EXTT11=
EXTT12=
EXTT13=
EXTT14=
EXTT15=
PLAYORDER=
